Patient4_TMGait_0pt3_02_right_17_EMG.mot
version=1
nRows=33
nColumns=33
inDegrees=no
endheader
time	1LAddLong	2LGlutMax	3LGlutMed	4LIliopsoas	5LSemiMemb	6LBicFemLong	7LRecFem	8LVastMed	9LVastLat	10LGasMed	11LTibAnt	12lTibPost	13LPeroneusLong	14LSol	15LExtDigLong	16LFlexDigLong	17RAddLong	18RGlutMax	19RGlutMed	20RIliopsoas	21RSemiMemb	22RBicFemLong	23RRecFem	24RVastMed	25RVastLat	26RGasMed	27RTibAnt	28RTibPost	29RPeroneusLong	30RSol	31RExtDigLong	32RFlexDigLong
34.065	-0.004425	0.19669	-0.11993	0.009003	-0.048981	0.059052	0.010376	0.043182	-0.025787	-0.002747	0.0177	0.009155	-0.032654	0.018768	0.00061	0.015411	-0.04837	-0.019684	0.23041	0.074463	0.10101	-0.029144	0.067291	-0.067596	-0.000305	-0.013428	0.2652	-0.004425	-0.037231	0.10834	-0.001678	-0.001678
34.066	0.021362	0.15442	-0.071716	0.000458	-0.061951	0.071564	-0.037231	0.031891	0.001526	0.031738	-0.056152	0.009308	0.090637	-0.002899	-0.022278	0.007172	-0.038757	-0.024872	0.35034	0.048676	0.10696	-0.007019	0.056152	-0.052948	0.006409	-0.005035	0.15381	-0.002747	0.027008	0.11322	-0.000916	-0.009613
34.067	0.025177	0.10452	0.092621	-0.00412	0.099792	0.032196	-0.11154	-0.006866	0.056763	0.062408	-0.049896	0.002441	0.06424	0.016327	-0.010071	0.003967	-0.030823	-0.050354	0.002441	-0.02594	0.096283	-0.016785	0.070343	-0.070038	0.00946	0.001526	0.18112	-0.002136	0.061493	0.089417	0	-0.008545
34.068	0.023804	0.082855	0.19226	0.010681	0.1265	0.034027	-0.1091	-0.02533	0.13077	-0.044861	-0.055084	0.006714	0.11581	-0.16052	-0.024567	0.003052	-0.028229	-0.03418	-0.059052	-0.09552	0.094147	-0.028534	0.057678	-0.070648	-0.003357	0.010529	-0.73685	-0.005493	0.21179	0.093994	-0.001526	-0.008087
34.069	0.014954	0.023041	0.29541	-0.006104	0.010376	-0.008392	-0.035553	-0.027008	0.066071	-0.085754	-0.050659	0.00824	0.084534	-0.12878	-0.007935	-0.000153	-0.014191	-0.095825	-0.15152	-0.055542	0.079498	-0.034637	0.14252	-0.034943	-0.005951	-0.005035	-0.4129	-0.003357	-0.009308	0.13382	-0.000305	-0.007935
34.07	0.000153	0.029602	0.090332	-0.01709	-0.02533	-0.033112	0.052185	-0.026398	0.027008	-0.033417	-0.001678	0.002747	-0.001984	-0.065155	0.008392	0.000153	-0.003967	-0.10468	-0.32928	0.055084	0.085907	-0.047302	0.14099	-0.081177	0.003357	-0.013123	0.34134	-0.004578	-0.13031	0.17471	0.00061	-0.012665
34.071	0.001984	0.1004	0.052795	-0.005646	-0.00824	-0.047455	0.04837	-0.017395	0.062866	-0.007324	0.024414	0.001221	-0.062256	0.048065	0.048523	0.000305	0.063629	-0.039978	-0.16541	0.11673	0.083771	-0.040131	0.06485	-0.02655	-0.001068	-0.009155	0.71732	-0.007019	-0.20615	0.051422	-0.000458	-0.012817
34.072	-0.00946	0.12283	0.10101	0.014191	0.001984	0.071716	0.086517	-0.005493	0.1004	-0.012665	0.029755	0.006256	0.024261	0.10849	0.045471	-0.009003	0.15289	0.001984	-0.17075	0.21668	0.08255	-0.040131	0.10574	-0.024261	-0.000458	-0.009613	0.81238	-0.004272	-0.233	-0.1004	-0.001526	-0.011292
34.073	-0.023651	0.092926	0.023346	0.003204	-0.016022	0.2034	0.049286	0.010681	0.074768	-0.056458	-0.00473	0.003357	0.46417	0.12421	0.0177	0.007019	0.14252	-0.018158	-0.10284	0.22293	0.072784	-0.051727	0.046844	-0.048523	0.010681	-0.004272	0.25604	-0.001984	-0.11917	-0.06958	0.002899	-0.003662
34.074	-0.002594	-0.055389	-0.11826	0.00885	-0.011139	0.30975	0.013123	0.019684	0.062714	-0.057678	0.002441	0.000305	0.17425	0.11871	-0.0354	-0.007782	0.1033	-0.041962	0.11307	0.13626	0.077667	-0.032349	0.033875	-0.044556	-0.005188	-0.00885	-0.007782	-0.003357	-0.075378	-0.002899	-0.001678	-0.009613
34.075	0.010071	-0.093231	-0.19516	-0.008545	-0.103	0.30502	-0.042877	0.014343	0.092163	-0.028229	-0.039368	0.005646	-0.13763	0.050964	-0.090179	-0.007782	0.049744	0.009308	0.12466	0.038147	0.066833	-0.028381	-0.005188	-0.048065	0.021362	-0.006409	0.18723	-0.005341	-0.031738	-0.000153	0.002289	-0.009766
34.076	0.020294	-0.097198	0.080566	-0.011292	-0.057068	0.1944	-0.011902	-0.004578	0.10178	-0.070496	-0.088348	0.007935	0.022125	0.016327	-0.11398	-0.006561	0.010529	0.024109	0.094452	-0.027771	0.068359	-0.021362	0.012817	-0.055084	-0.00473	0.001068	-0.49362	-0.002441	0.024719	0.00412	0.000305	-0.002136
34.077	0.024719	-0.071716	0.015411	-0.001526	-0.000458	0.11124	0.007324	-0.011292	0.1294	-0.055084	-0.11322	0.004578	-0.058289	0.048981	-0.049133	-0.007935	-0.03067	0.035553	0.18326	-0.089874	0.061646	-0.024261	-0.042877	-0.060425	0.019073	0.00885	-1.2412	-0.007324	0.13351	-0.010529	0.001221	0.001526
34.078	0.023804	-0.036469	0.008392	-0.004272	0.074921	-0.029602	0.006866	-0.006409	0.18631	-0.021057	-0.061798	-0.000153	-0.056915	-0.036469	0.025024	-0.006714	-0.041962	-0.069733	0.27084	-0.15137	0.062561	-0.012054	-0.11765	-0.059204	0.028076	0.004578	-0.89844	-0.003357	0.037537	-0.040436	-0.000916	0
34.079	0.016479	-0.01297	-0.056	-0.007477	0.075226	-0.3273	0.021667	-0.007324	0.28625	-0.037079	0.03418	0.002594	-0.1384	-0.059052	0.027313	-0.00351	-0.077209	-0.023804	-0.025024	-0.12909	0.071869	-0.023041	-0.094147	-0.032043	0.030365	-0.001526	-0.34821	-0.001984	-0.12192	0.02594	-0.000763	-0.005341
34.08	0.028839	0.060577	-0.2034	0.013428	0.059357	-0.32989	0.034943	-0.016937	0.30853	-0.032043	0.15472	0.001678	-0.23071	0.045013	0.095673	-0.003357	-0.066528	-0.016022	-0.33493	-0.052643	0.079193	-0.005798	-0.12741	-0.019073	0.03479	-0.006714	-0.093384	-0.004883	-0.23529	0.096893	0.001068	-0.003357
34.081	0.030212	0.011292	-0.28473	0.004883	0.033569	-0.28763	0.031738	-0.014801	0.27618	-0.033875	0.10925	0.003662	-0.042725	0.053864	0.076294	-0.001526	-0.054169	-0.070343	-0.19196	0.053101	0.093689	-0.024414	-0.037689	-0.003052	0.016022	-0.001221	-0.18784	-0.009155	-0.086975	0.071716	-0.000153	-0.003052
34.082	0.026703	0.003662	-0.11139	0.006256	0.023041	-0.14069	0.045776	-0.007019	0.14114	-0.049744	0.071259	0.002747	0.56305	0.073547	0.062714	0.009766	-0.028992	-0.08606	-0.034485	0.075836	0.07843	-0.029144	-0.07431	0.007019	0.019379	0.001526	-0.08255	-0.007172	-0.03479	-0.072174	-0.001068	0.004578
34.083	0.013275	0.040894	-0.13077	0.012512	-0.005341	-0.11139	0.077209	0.007782	-0.059509	-0.059204	0.002747	0.004578	0.17914	0.098267	0.06073	0.000916	-0.018158	-0.081329	0.07309	-0.000763	0.08316	-0.030975	0.007629	-0.02655	0.011139	0.002289	0.021667	-0.000916	-0.029297	-0.084991	0.000763	0.004425
34.084	0.014038	0.092621	0.038757	-0.001984	-0.007935	-0.096893	0.077362	0.005341	-0.40482	-0.009308	-0.02243	0.002899	0.35629	0.069733	0.058441	-0.009308	-0.007324	-0.082855	-0.064392	0.057373	0.078278	-0.050812	-0.009003	-0.014191	0.005341	0.002289	0.17716	-0.003052	-0.044861	-0.069122	0.002136	-0.000305
34.085	-0.000153	0.12619	0.021057	0.000305	-0.027008	-0.04303	0.061798	0.00824	-0.47287	-0.003204	0.005493	-0.000153	0.35645	-0.004425	0.052032	-0.007782	0.000763	-0.085449	-0.057373	0.079193	0.067291	-0.053558	0.028839	-0.036011	-0.0177	-0.004578	0.41412	-0.003967	-0.11154	-0.062408	0.000763	-0.012054
34.086	-0.015869	0.053406	-0.095673	0.006866	-0.036316	-0.12024	0.037842	0.004425	-0.26657	-0.028687	-0.036621	-0.00351	-0.3038	-0.057831	0.041351	0.006104	0.014191	-0.086212	-0.060577	0.049286	0.07019	-0.068054	0.010986	-0.055695	-0.010834	-0.012207	0.33035	-0.00885	-0.215	-0.080261	-0.001526	-0.008545
34.087	0.010223	-0.060577	0.088806	-0.004578	-0.021057	-0.10941	-0.034027	-0.005188	-0.098877	-0.042114	-0.020447	-0.000916	-0.50308	-0.064545	-0.071259	-0.005798	0.008392	-0.075378	0.005646	0.029144	0.066376	-0.044861	0.016937	-0.028076	-0.006561	-0.008545	0.21652	-0.003204	-0.271	-0.089569	0.000763	-0.014343
34.088	0.020142	-0.14694	0.21057	0.003967	-0.005951	0.052948	-0.075378	-0.005951	-0.015259	-0.06012	-0.012665	0.000916	0.13931	0.01358	-0.11108	-0.001373	0.006714	-0.096893	-0.11658	-0.016937	0.065308	-0.053558	0.014648	-0.056152	0.00061	-0.007324	-0.039215	-0.003204	-0.10178	-0.092468	0.003052	-0.002899
34.089	0.027924	-0.11002	0.10834	0.000763	0.012512	0.15243	0.003815	-0.004272	-0.010986	-0.057526	-0.011749	0.001221	0.002747	0.046082	-0.00824	0.015106	0.015259	-0.097809	-0.018768	-0.036163	0.062256	-0.04776	-0.016479	-0.037231	-0.009155	-0.010986	-0.024719	-0.003967	-0.050049	-0.07843	-0.004578	-0.013885
34.09	0.02594	-0.12314	0.052338	-0.007324	0.011139	0.24033	0.033264	-0.009308	-0.013123	-0.059052	0.002747	-0.001831	-0.25513	0.01709	-0.012207	0.021362	0.019226	-0.10986	0.26367	-0.11704	0.053101	-0.032654	-0.001984	-0.067444	-0.015869	-0.010681	0.16907	-0.000916	-0.089874	0.06897	-0.000458	-0.018158
34.091	0.010834	-0.22903	-0.048676	0.010376	0.002136	0.24948	0.025635	-0.001526	-0.039978	-0.080261	0.032349	0.003815	-0.32532	0.019836	-0.028839	-0.002899	-0.021667	-0.12604	0.20737	-0.046844	0.061188	-0.012665	-0.013275	-0.053558	-0.007782	-0.019531	0.39261	-0.000153	-0.16144	0.087128	0.000458	-0.00824
34.092	0.012665	-0.31601	-0.046997	-0.002136	0.030823	0.15808	0.038452	0.00351	-0.043945	-0.064087	0.012054	-0.001984	-0.078278	-0.063019	-0.018463	-0.027618	-0.028076	-0.13534	-0.33691	-0.012512	0.069275	-0.000305	-0.020752	-0.048981	0.005188	-0.016022	0.28473	-0.004272	-0.18967	0.034027	-0.001068	0.001678
34.093	0.020447	-0.32852	0.043335	0.001678	0.05249	0.093231	0.061646	0.006866	-0.019226	-0.063477	-0.009766	0.005188	0.014496	-0.050659	-0.010681	-0.018616	0.013733	-0.0914	-0.28153	0.00885	0.065918	-0.025177	0.002136	-0.056763	-0.009918	-0.003967	0.37415	-0.002899	-0.15549	-0.072021	0.000305	-0.006104
34.094	0.020905	-0.38727	0.018463	0.00351	0.043793	-0.077972	0.067902	0.007172	0.004578	-0.045471	-0.011902	-0.001526	0.001526	-0.046387	-0.009766	-0.02243	0.027161	-0.092468	-0.20355	0.028992	0.06012	-0.011139	-0.00351	-0.086517	0.003052	-0.001221	0.25055	-0.000153	-0.09964	-0.072784	0.001831	-0.003204
34.095	0.027313	-0.42969	0.051117	0.015717	0.015106	-0.13931	0.076447	0.010223	0.027313	0.003204	0.001373	0.024261	-0.090942	-0.037537	-0.015259	0.001373	0.018158	-0.087585	-0.22263	-0.02655	0.043793	-0.004578	0.018158	-0.031586	0.007172	0.005493	0.068207	-0.00473	0.057983	-0.13001	0.000305	0.00061
34.096	0.00824	-0.39627	0.21515	0.02655	-0.019836	-0.16449	0.079956	0.006866	0.045776	0.040131	0	0.018311	-0.092316	-0.047455	-0.014343	-0.009155	0.020142	-0.12558	-0.1416	-0.14984	0.041351	-0.02121	0.024719	-0.048981	0.001526	0.018768	0.12482	-0.001068	0.22492	-0.17578	0.002136	0.000153
34.097	0.013733	-0.28366	0.23712	0.01236	-0.016632	-0.2565	0.06134	0.005188	0.066681	0.025787	-0.000305	-0.001831	0.001373	-0.12039	0.007935	-0.000153	0.058746	-0.087433	-0.20325	-0.10727	0.039978	-0.003052	0.023956	-0.062256	-0.000916	0.01358	-0.22949	-0.007477	0.215	-0.10864	0.00061	0.004578
